# xmcd
#
# Track frame offsets: 
#        150
#        6893
#        25198
#        46165
#        63796
#        81029
#        97844
#        116527
#        133325
#        151607
#        168440
#        188615
#
# Disc length: 2573 seconds
#
# Revision: 2
# Processed by: cddbd v1.5.2PL0 Copyright (c) Steve Scherf et al.
# Submitted via: ExactAudioCopy v1.0b3
#
DISCID=830a0b0c
DTITLE=Monica - New Life
DYEAR=2012
DGENRE=Soul
TTITLE0=New Life (Intro)
TTITLE1=Monica with Brandy - It All Belongs To Me
TTITLE2=Daddy's Good Girl
TTITLE3=Man Who Has Everything
TTITLE4=Big Mistake
TTITLE5=Monica featuring Wale - Take A Chance
TTITLE6=Without You
TTITLE7=Until It's Gone
TTITLE8=Amazing
TTITLE9=Cry
TTITLE10=Time To Move On
TTITLE11=New Life (Outro)
EXTD=
EXTT0=
EXTT1=
EXTT2=
EXTT3=
EXTT4=
EXTT5=
EXTT6=
EXTT7=
EXTT8=
EXTT9=
EXTT10=
EXTT11=
PLAYORDER=
